<svg xmlns="http://www.w3.org/2000/svg" width="400" height="400" viewBox="0 0 400 400">
  <defs>
    <style>
      .cls-1 {
        fill: #fff;
      }

      .cls-1, .cls-2 {
        stroke: #000;
        stroke-linecap: round;
        stroke-linejoin: round;
        stroke-width: 8.333px;
        fill-rule: evenodd;
      }
    </style>
  </defs>
  <path class="cls-1" d="M249,388c-4.719-.072-140.537-41.155-129-40L82,205,109,45,243,12l91,72,4,233S253,388.061,249,388Z"/>
  <path class="cls-1" d="M135,154"/>
  <path class="cls-2" d="M136,83L237,65l-8,86-98,2Z"/>
  <path id="Line_3" data-name="Line 3" class="cls-1" d="M86.134,203.173l-0.052-1,145.8-7.666,0.053,1Z"/>
  <path id="Line_3_copy" data-name="Line 3 copy" class="cls-1" d="M90.215,179.219l-0.07-1,141.65-9.954,0.07,1Z"/>
  <path id="Line_4" data-name="Line 4" class="cls-1" d="M241.5,17.972l1,0.056-10,178-1-.056Z"/>
  <path id="Line_5" data-name="Line 5" class="cls-1" d="M109.7,77.478l-0.207-.978L238.957,49.132l0.207,0.978Z"/>
  <path id="Line_2" data-name="Line 2" class="cls-1" d="M247.5,383.96l-1,.08-15-189,1-.08Z"/>
  <path id="Line_6" data-name="Line 6" class="cls-2" d="M93.159,173.915L92.75,173l36.76-16.512,0.41,0.912Z"/>
  <path id="Line_7" data-name="Line 7" class="cls-2" d="M134.566,77.711l1,0.052L131.5,156.026l-1-.052Z"/>
  <path id="Line_8" data-name="Line 8" class="cls-2" d="M231.894,149.931l0.064,1-96.852,6.14-0.064-1Z"/>
</svg>
