<?xml version="1.0" standalone="no"?>
<!DOCTYPE svg PUBLIC "-//W3C//DTD SVG 20010904//EN" "http://www.w3.org/TR/2001/REC-SVG-20010904/DTD/svg10.dtd">
<!-- Created using Krita: https://krita.org -->
<svg xmlns="http://www.w3.org/2000/svg" 
    xmlns:xlink="http://www.w3.org/1999/xlink"
    xmlns:krita="http://krita.org/namespaces/svg/krita"
    xmlns:sodipodi="http://sodipodi.sourceforge.net/DTD/sodipodi-0.dtd"
    width="96pt"
    height="96pt"
    viewBox="0 0 96 96">
<defs/>
<circle id="shape0" transform="matrix(1.49660341546212 0 0 1.59929079709275 1.43644550314269 38.6358085836852)" r="8.52" cx="8.52" cy="8.52" fill="#ffffff" fill-rule="evenodd" stroke="#000000" stroke-width="0.48" stroke-linecap="square" stroke-linejoin="bevel"/><circle id="shape01" transform="matrix(1.49660337464291 0 0 1.59929075347279 14.9120619154493 17.5521959997918)" r="10.2549549563215" cx="10.2549549563215" cy="10.2549549563215" fill="#ffffff" fill-rule="evenodd" stroke="#000000" stroke-width="0.48" stroke-linecap="square" stroke-linejoin="bevel"/><circle id="shape01" transform="matrix(1.49660337464291 0 0 1.59929075347279 41.9520564500073 10.2441038602397)" r="11.4469543370914" cx="11.4469543370914" cy="11.4469543370914" fill="#ffffff" fill-rule="evenodd" stroke="#000000" stroke-width="0.48" stroke-linecap="square" stroke-linejoin="bevel"/><circle id="shape02" transform="matrix(1.49660337464291 0 0 1.59929075347279 62.4593006685122 34.0843229952242)" r="10.7257054114305" cx="10.7257054114305" cy="10.7257054114305" fill="#ffffff" fill-rule="evenodd" stroke="#000000" stroke-width="0.48" stroke-linecap="square" stroke-linejoin="bevel"/><path id="shape1" transform="matrix(1.49660341546212 0 0 1.59929079709275 13.8731696972056 24.0112150251146)" fill="#ffffff" fill-rule="evenodd" stroke-opacity="0" stroke="#000000" stroke-width="0" stroke-linecap="square" stroke-linejoin="bevel" d="M0 26.16L43.5 27.6L40.56 6.66L18.96 0L1.14 9.3C0.76 14.92 0.38 20.54 0 26.16" sodipodi:nodetypes="cccccc"/><path id="shape2" transform="matrix(1.49660341546212 0 0 1.59929079709275 13.2790265759624 65.9876529285754)" fill="none" stroke="#000000" stroke-width="0.48" stroke-linecap="square" stroke-linejoin="miter" stroke-miterlimit="2" d="M44.2083 1.4425L0 0" sodipodi:nodetypes="cc"/><circle id="shape02" transform="matrix(1.72004125688365 0 0 1.72004125688365 29.742906938947 51.069587316768)" r="5.16" cx="5.16" cy="5.16" fill="#ffffff" fill-rule="evenodd" stroke="#000000" stroke-width="0.48" stroke-linecap="square" stroke-linejoin="bevel"/><circle id="shape11" transform="matrix(1.72004125688365 0 0 1.72004125688365 22.4876165684418 74.5338312909401)" r="4.17298927971844" cx="4.17298927971844" cy="4.17298927971844" fill="#ffffff" fill-rule="evenodd" stroke="#000000" stroke-width="0.48" stroke-linecap="square" stroke-linejoin="bevel"/><path id="shape21" transform="matrix(1.7200204121861 -0.00846800124156267 0.00846800124156267 1.7200204121861 35.8512239114203 61.4895064705065)" fill="#ffffff" fill-rule="evenodd" stroke="#000000" stroke-width="0.48" stroke-linecap="square" stroke-linejoin="bevel" d="M0 13.7126L6.85582 0C6.85582 0 4.57054 4.57086 0 13.7126Z" sodipodi:nodetypes="ccc"/><path id="shape3" transform="matrix(1.72004125688365 0 0 1.72004125688365 22.8599999265175 56.4691397928191)" fill="#ffffff" fill-rule="evenodd" stroke="#000000" stroke-width="0.48" stroke-linecap="square" stroke-linejoin="bevel" d="M0 13.2952L4.48081 0C4.48081 0 2.98721 4.43173 0 13.2952Z" sodipodi:nodetypes="ccc"/><rect id="shape4" transform="matrix(1.72004125688365 0 0 1.72004125688365 39.3064930714287 52.9272341726076)" fill="#ffffff" fill-rule="evenodd" stroke="#000000" stroke-width="0.48" stroke-linecap="square" stroke-linejoin="bevel" width="11.4199104333577" height="11.7614101567613"/><path id="shape5" transform="matrix(1.72004125688365 0 0 1.72004125688365 33.8031279670903 47.0446946168055)" fill="#ffffff" fill-rule="evenodd" stroke="#000000" stroke-width="0.48" stroke-linecap="square" stroke-linejoin="bevel" d="M0 3.02127L5.60029 3.11361L4.08947 0L1.38947 0.12L0 3.02127" sodipodi:nodetypes="ccccc"/><circle id="shape6" transform="matrix(1.72004125688365 0 0 1.72004125688365 38.5151171006669 66.9627681925669)" r="3.36" cx="3.36" cy="3.36" fill="#ffffff" fill-rule="evenodd" stroke="#000000" stroke-width="0.48" stroke-linecap="square" stroke-linejoin="bevel"/><path id="shape7" transform="matrix(1.72004125688365 0 0 1.72004125688365 24.0667740285822 51.2759969080257)" fill="none" stroke-opacity="0" stroke="#000000" stroke-width="0" stroke-linecap="square" stroke-linejoin="bevel" d="M6.54 19.2L10.08 12.78L16.62 12.12L10.5 0.12L6.48 0L4.44 2.82L3.3 6L1.08 12.6L0 15.96L6.54 19.2" sodipodi:nodetypes="cccccccccc"/><path id="shape8" transform="matrix(1.7195141310788 0.0425802583623774 -0.0425802583623774 1.7195141310788 34.1218832780045 61.3585195440686)" fill="#ffffff" fill-rule="evenodd" stroke-opacity="0" stroke="#000000" stroke-width="0" stroke-linecap="square" stroke-linejoin="bevel" d="M2.20617 9.1641L10.3945 5.85484L5.68514 0L0 4.83661L2.20617 9.1641" sodipodi:nodetypes="ccccc"/><path id="shape9" transform="matrix(1.72004125688365 0 0 1.72004125688365 33.1942869929315 50.8142866202793)" fill="#ffffff" fill-rule="evenodd" stroke-opacity="0" stroke="#000000" stroke-width="0" stroke-linecap="square" stroke-linejoin="bevel" d="M1.22351 0.327953L5.3033 0L7.5519 4.22101L0 3.0954L0.60686 0.747274" sodipodi:nodetypes="ccccc"/><path id="shape10" transform="matrix(1.72004125688365 0 0 1.72004125688365 23.8534648956727 55.3800002465257)" fill="#ffffff" fill-rule="evenodd" stroke-opacity="0" stroke="#000000" stroke-width="0" stroke-linecap="square" stroke-linejoin="bevel" d="M1.06804 9.80741L0 13.0351L6.61359 16.9249L16.0616 0L4.18997 0.579338" sodipodi:nodetypes="ccccc"/><circle id="shape11" transform="matrix(-1.72004125688365 0 0 1.72004125688365 84.6809632348011 51.1060749019297)" r="5.16" cx="5.16" cy="5.16" fill="#ffffff" fill-rule="evenodd" stroke="#000000" stroke-width="0.48" stroke-linecap="square" stroke-linejoin="bevel"/><circle id="shape12" transform="matrix(-1.72004125688365 0 0 1.72004125688365 91.9362536053064 74.5703188761019)" r="4.17298927971844" cx="4.17298927971844" cy="4.17298927971844" fill="#ffffff" fill-rule="evenodd" stroke="#000000" stroke-width="0.48" stroke-linecap="square" stroke-linejoin="bevel"/><path id="shape13" transform="matrix(-1.7200204121861 -0.00846800124156266 -0.00846800124156266 1.7200204121861 78.5726462623278 61.5259940556682)" fill="#ffffff" fill-rule="evenodd" stroke="#000000" stroke-width="0.48" stroke-linecap="square" stroke-linejoin="bevel" d="M0 13.7126L6.85582 0C6.85582 0 4.57054 4.57086 0 13.7126Z" sodipodi:nodetypes="ccc"/><path id="shape14" transform="matrix(-1.72004125688365 0 0 1.72004125688365 91.7258897445593 56.5056273779808)" fill="#ffffff" fill-rule="evenodd" stroke="#000000" stroke-width="0.48" stroke-linecap="square" stroke-linejoin="bevel" d="M0 13.7796L4.575 0C4.575 0 3.05 4.59321 0 13.7796Z" sodipodi:nodetypes="ccc"/><rect id="shape15" transform="matrix(-1.72004125688365 0 0 1.72004125688365 75.1173771023194 52.9637217577694)" fill="#ffffff" fill-rule="evenodd" stroke="#000000" stroke-width="0.48" stroke-linecap="square" stroke-linejoin="bevel" width="11.4199104333577" height="11.7614101567613"/><path id="shape16" transform="matrix(-1.72004125688365 0 0 1.72004125688365 80.6207422066579 47.0811822019673)" fill="#ffffff" fill-rule="evenodd" stroke="#000000" stroke-width="0.48" stroke-linecap="square" stroke-linejoin="bevel" d="M0 3.02127L5.60029 3.11361L4.08947 0L1.38947 0.12L0 3.02127" sodipodi:nodetypes="ccccc"/><circle id="shape17" transform="matrix(-1.72004125688365 0 0 1.72004125688365 75.9087530730813 66.9992557777287)" r="3.36" cx="3.36" cy="3.36" fill="#ffffff" fill-rule="evenodd" stroke="#000000" stroke-width="0.48" stroke-linecap="square" stroke-linejoin="bevel"/><path id="shape18" transform="matrix(-1.72004125688365 0 0 1.72004125688365 90.3570961451659 51.3124844931874)" fill="none" stroke-opacity="0" stroke="#000000" stroke-width="0" stroke-linecap="square" stroke-linejoin="bevel" d="M6.54 19.2L10.08 12.78L16.62 12.12L10.5 0.12L6.48 0L4.44 2.82L3.3 6L1.08 12.6L0 15.96L6.54 19.2" sodipodi:nodetypes="cccccccccc"/><path id="shape19" transform="matrix(-1.7195141310788 0.0425802583623777 0.0425802583623777 1.7195141310788 80.3019868957437 61.3950071292304)" fill="#ffffff" fill-rule="evenodd" stroke-opacity="0" stroke="#000000" stroke-width="0" stroke-linecap="square" stroke-linejoin="bevel" d="M2.20617 9.1641L10.3945 5.85484L5.68514 0L0 4.83661L2.20617 9.1641" sodipodi:nodetypes="ccccc"/><path id="shape20" transform="matrix(-1.72004125688365 0 0 1.72004125688365 81.1695831767185 50.5800034547459)" fill="#ffffff" fill-rule="evenodd" stroke-opacity="0" stroke="#000000" stroke-width="0" stroke-linecap="square" stroke-linejoin="bevel" d="M1.66832 0L5.17222 0.00652828L7.36524 4.34355L0 3.18701L0.866013 0.627892" sodipodi:nodetypes="ccccc"/><path id="shape21" transform="matrix(-1.72004125688365 0 0 1.72004125688365 90.5704052780755 54.6812500207374)" fill="#ffffff" fill-rule="evenodd" stroke-opacity="0" stroke="#000000" stroke-width="0" stroke-linecap="square" stroke-linejoin="bevel" d="M1.07514 10.0551L0 13.3643L6.65761 17.3524L16.1685 0L4.21786 0.59397" sodipodi:nodetypes="ccccc"/><rect id="shape22" transform="matrix(1.72004125688365 0 0 1.72004125688365 33.2623028543825 53.2875668177353)" fill="#ffffff" fill-rule="evenodd" stroke-opacity="0" stroke="#000000" stroke-width="0" stroke-linecap="square" stroke-linejoin="bevel" width="27.0831844133884" height="11.3463249819296"/><circle id="shape23" transform="matrix(1.72004125688365 0 0 1.72004125688365 73.8368342614912 54.3730645750446)" r="1.44" cx="1.44" cy="1.44" fill="#000000" fill-rule="evenodd" stroke-opacity="0" stroke="#000000" stroke-width="0" stroke-linecap="square" stroke-linejoin="bevel"/><rect id="shape24" transform="matrix(1.72004125688365 0 0 1.72004125688365 36.6680615188 55.9132012829321)" fill="#000000" fill-rule="evenodd" stroke-opacity="0" stroke="#000000" stroke-width="0" stroke-linecap="square" stroke-linejoin="bevel" width="1.92" height="7.68"/><rect id="shape03" transform="matrix(0.0147969443915771 1.7199775706948 -1.7199775706948 0.0147969443915771 44.8405536809332 60.8250368392355)" fill="#000000" fill-rule="evenodd" stroke-opacity="0" stroke="#000000" stroke-width="0" stroke-linecap="square" stroke-linejoin="bevel" width="1.92" height="7.68"/><circle id="shape011" transform="matrix(1.7200412081615 0 0 1.7200412081615 79.0631209653926 60.158114629708)" r="1.44" cx="1.44" cy="1.44" fill="#000000" fill-rule="evenodd" stroke-opacity="0" stroke="#000000" stroke-width="0" stroke-linecap="square" stroke-linejoin="bevel"/><circle id="shape021" transform="matrix(1.7200412081615 0 0 1.7200412081615 68.6257314834166 60.0482026585064)" r="1.44" cx="1.44" cy="1.44" fill="#000000" fill-rule="evenodd" stroke-opacity="0" stroke="#000000" stroke-width="0" stroke-linecap="square" stroke-linejoin="bevel"/><circle id="shape03" transform="matrix(1.7200412081615 0 0 1.7200412081615 73.8976505795774 65.2873296113014)" r="1.44" cx="1.44" cy="1.44" fill="#000000" fill-rule="evenodd" stroke-opacity="0" stroke="#000000" stroke-width="0" stroke-linecap="square" stroke-linejoin="bevel"/><path id="shape0" transform="matrix(0.99998955970847 0.00456951573591665 -0.00456951573591665 0.99998955970847 75.0777055618443 76.3711310459047)" fill="none" stroke="#ffffff" stroke-width="1.2" stroke-linecap="square" stroke-linejoin="miter" stroke-miterlimit="2" d="M0 0L3.9 7.74" sodipodi:nodetypes="cc"/><path id="shape04" transform="matrix(-0.999989563297429 0.00456951575231663 0.00456951575231663 0.999989563297429 39.3301762832873 76.2834940517525)" fill="none" stroke="#ffffff" stroke-width="1.2" stroke-linecap="square" stroke-linejoin="miter" stroke-miterlimit="2" d="M0 0L3.9 7.74" sodipodi:nodetypes="cc"/><path id="shape1" transform="translate(23.9357722809388, 73.9067994933393)" fill="none" stroke="#ffffff" stroke-width="1.2" stroke-linecap="square" stroke-linejoin="miter" stroke-miterlimit="2" d="M1.73948 0L0 5.38815" sodipodi:nodetypes="cc"/><path id="shape05" transform="matrix(-0.999999970915505 0 0 0.999999970915505 90.5841982604605 74.3857998545608)" fill="none" stroke="#ffffff" stroke-width="1.2" stroke-linecap="square" stroke-linejoin="miter" stroke-miterlimit="2" d="M1.73948 0L0 5.38815" sodipodi:nodetypes="cc"/><path id="shape2" transform="matrix(0.993241192822045 0.116068655895734 -0.116068655895734 0.993241192822045 73.1650426470008 32.841878506029)" fill="none" stroke="#ffffff" stroke-width="1.2" stroke-linecap="square" stroke-linejoin="miter" stroke-miterlimit="2" d="M4.58205 4.4972L0 0" sodipodi:nodetypes="cc"/><path id="shape3" transform="matrix(0.999988614936793 -0.00477179178019291 0.00477179178019291 0.999988614936793 64.2275723804843 35.2418698626164)" fill="none" stroke="#ffffff" stroke-width="1.2" stroke-linecap="square" stroke-linejoin="miter" stroke-miterlimit="2" d="M0 2.54558L11.7097 0" sodipodi:nodetypes="cc"/><path id="shape4" transform="translate(14.460000566611, 37.3200014623736)" fill="none" stroke="#ffffff" stroke-width="1.2" stroke-linecap="square" stroke-linejoin="miter" stroke-miterlimit="2" d="M0 3.54L2.94 0" sodipodi:nodetypes="cc"/><path id="shape5" transform="matrix(0.92691416834375 0.375273399701628 -0.375273399701628 0.92691416834375 41.2562482317101 22.8891037675713)" fill="none" stroke="#ffffff" stroke-width="1.2" stroke-linecap="square" stroke-linejoin="miter" stroke-miterlimit="2" d="M3.81838 0L0 1.6122" sodipodi:nodetypes="cc"/><path id="shape6" transform="translate(79.320004769669, 51.8400031172421)" fill="none" stroke="#ffffff" stroke-width="1.2" stroke-linecap="square" stroke-linejoin="miter" stroke-miterlimit="2" d="M0 0L1.02 1.44" sodipodi:nodetypes="cc"/>
</svg>
