<?xml version="1.0" standalone="no"?>
<!DOCTYPE svg PUBLIC "-//W3C//DTD SVG 20010904//EN" "http://www.w3.org/TR/2001/REC-SVG-20010904/DTD/svg10.dtd">
<!-- Created using Krita: https://krita.org -->
<svg xmlns="http://www.w3.org/2000/svg" 
    xmlns:xlink="http://www.w3.org/1999/xlink"
    xmlns:krita="http://krita.org/namespaces/svg/krita"
    xmlns:sodipodi="http://sodipodi.sourceforge.net/DTD/sodipodi-0.dtd"
    width="96pt"
    height="96pt"
    viewBox="0 0 96 96">
<defs/>
<path id="shape0" transform="matrix(1.6886041460761 0 0 1.97903362624597 37.3352374543895 2.81264657293217)" fill="#ffffff" fill-rule="evenodd" stroke="#000000" stroke-width="0.24" stroke-linecap="square" stroke-linejoin="bevel" d="M0 5.77605L21.6 0L21.6 43.2L0 40.5526Z" sodipodi:nodetypes="ccccc"/><path id="shape1" transform="matrix(-1.6886041460761 0 0 1.97903362624597 77.0512069700995 4.4750348189788)" fill="#ffffff" fill-rule="evenodd" stroke="#000000" stroke-width="0.24" stroke-linecap="square" stroke-linejoin="bevel" d="M0 1.70112L0.96 0L0.96 42L0 41.88Z" sodipodi:nodetypes="ccccc"/><path id="shape2" transform="matrix(-1.6886041460761 0 0 1.97903362624597 80.2933269305656 9.22471552196912)" fill="#ffffff" fill-rule="evenodd" stroke="#000000" stroke-width="0.24" stroke-linecap="square" stroke-linejoin="bevel" d="M0 1.60391L0.96 0L0.96 39.6L0 39.4869Z" sodipodi:nodetypes="ccccc"/><path id="shape3" transform="matrix(-1.6886041460761 0 0 1.97903362624597 83.5354468910317 13.9743962249594)" fill="#ffffff" fill-rule="evenodd" stroke="#000000" stroke-width="0.24" stroke-linecap="square" stroke-linejoin="bevel" d="M0 1.5067L0.96 0L0.96 37.2L0 37.0937Z" sodipodi:nodetypes="ccccc"/><path id="shape4" transform="matrix(-1.6886041460761 0 0 1.97903362624597 89.6144218169057 31.3107307908742)" fill="#ffffff" fill-rule="evenodd" stroke="#000000" stroke-width="0.24" stroke-linecap="square" stroke-linejoin="bevel" d="M0 1.16648L2.88 0L2.88 28.8L0 28.7177Z" sodipodi:nodetypes="ccccc"/><path id="shape0" transform="matrix(0.699728727918945 0 0 0.726177012222034 2.11205950749991 62.492720098196)" fill="#ffffff" fill-rule="evenodd" stroke="#000000" stroke-width="0.24" stroke-linecap="square" stroke-linejoin="bevel" d="M4.98 22.14L66.42 38.4L90.36 9.84L94.44 1.98L94.32 0L70.5 27.72L0.06 10.5L0 12.24L4.98 22.14" sodipodi:nodetypes="ccccccccc"/><path id="shape1" transform="matrix(0.699728727918945 0 0 0.726177012222034 2.17740085583428 46.1599299436089)" fill="#ffffff" fill-rule="evenodd" stroke="#000000" stroke-width="0.24" stroke-linecap="square" stroke-linejoin="bevel" d="M70.343 50.148L0 32.9229L0.0848528 22.4011L30.1228 0L94.0169 11.9642L94.1018 23.1648L70.343 50.148" sodipodi:nodetypes="ccccccc"/><path id="shape2" transform="matrix(0.699728727918945 0 0 0.726177012222034 48.6078291073338 82.4530264272868)" fill="none" stroke="#000000" stroke-width="0.24" stroke-linecap="square" stroke-linejoin="miter" stroke-miterlimit="2" d="M0 10.6915L4.07293 0" sodipodi:nodetypes="cc"/><path id="shape3" transform="matrix(0.699728727918945 0 0 0.726177012222034 51.3390307721306 74.8123745260458)" fill="none" stroke="#000000" stroke-width="0.24" stroke-linecap="square" stroke-linejoin="miter" stroke-miterlimit="2" d="M0 10.4369L0.0848528 0" sodipodi:nodetypes="cc"/><path id="shape4" transform="matrix(0.693216235391403 -0.0988447005159131 0.0952446516337554 0.719418361080422 45.263865899117 73.1526697834385)" fill="none" stroke="#000000" stroke-width="0.24" stroke-linecap="square" stroke-linejoin="miter" stroke-miterlimit="2" d="M0 0L8.57013 3.47897" sodipodi:nodetypes="cc"/><path id="shape5" transform="matrix(0.699728727918945 0 0 0.726177012222034 51.2796568228959 55.0329450075108)" fill="none" stroke="#000000" stroke-width="0.24" stroke-linecap="square" stroke-linejoin="miter" stroke-miterlimit="2" d="M0 27.068L23.5891 0" sodipodi:nodetypes="cc"/><path id="shape6" transform="matrix(0.699728727918945 0 0 0.726177012222034 2.2367747550224 62.4271242667762)" fill="none" stroke="#000000" stroke-width="0.24" stroke-linecap="square" stroke-linejoin="miter" stroke-miterlimit="2" d="M0 0L49.2146 11.2006" sodipodi:nodetypes="cc"/><path id="shape7" transform="matrix(0.699728727918945 0 0 0.726177012222034 36.7346369530871 52.3698122063406)" fill="#ffffff" fill-rule="evenodd" stroke="#000000" stroke-width="0.24" stroke-linecap="square" stroke-linejoin="bevel" d="M1.32 48.4929L12.72 51.2L12.48 28.1306L37.44 2.11862L26.28 0L0 25.4234L0.36 37.3113L1.32 48.4929" sodipodi:nodetypes="cccccccc"/><path id="shape8" transform="matrix(0.699728727918945 0 0 0.726177012222034 7.34293468051922 59.9007804053142)" fill="none" stroke="#000000" stroke-width="0.48" stroke-linecap="square" stroke-linejoin="bevel" d="M0.59397 13.237L40.7294 22.9951L40.6445 14.5098L46.3296 8.82469L5.9397 0L0.254558 4.75176L40.8142 14.2553L0 4.75176L0.59397 13.237" sodipodi:nodetypes="ccccccccc"/><path id="shape9" transform="matrix(0.699728727918945 0 0 0.726177012222034 9.71789276881041 75.3669394635933)" fill="none" stroke="#000000" stroke-width="0.48" stroke-linecap="square" stroke-linejoin="bevel" d="M0 0L0.169706 3.0547L5.68514 4.4972L5.43058 1.10309L0 0" sodipodi:nodetypes="ccccc"/><path id="shape01" transform="matrix(0.699728719737914 0 0 0.726177003731777 14.9618006015249 76.5376845715905)" fill="none" stroke="#000000" stroke-width="0.48" stroke-linecap="square" stroke-linejoin="bevel" d="M0 0L0.178415 3.21147L5.97691 4.728L5.70928 1.1597L0 0" sodipodi:nodetypes="ccccc"/><path id="shape10" transform="matrix(0.699728727918945 0 0 0.726177012222034 38.2173898283046 80.4618630416899)" fill="none" stroke="#000000" stroke-width="0.24" stroke-linecap="square" stroke-linejoin="bevel" d="M0 0L3.47897 1.22358L3.41075 7.7483L-2.80331e-15 6.89977L0 0" sodipodi:nodetypes="ccccc"/><path id="shape02" transform="matrix(0.699728709489899 0 0 0.726176993096409 41.9947606473052 81.4301531647917)" fill="none" stroke="#000000" stroke-width="0.24" stroke-linecap="square" stroke-linejoin="bevel" d="M0 0L3.47897 1.22358L3.41075 7.7483L-2.80331e-15 6.89977L0 0" sodipodi:nodetypes="ccccc"/>
</svg>
