<svg id="shape" xmlns="http://www.w3.org/2000/svg" width="400" height="400" viewBox="0 0 400 400">
  <defs>
    <style>
      .cls-1, .cls-2 {
        fill: #fff;
        fill-rule: evenodd;
      }

      .cls-1 {
        stroke: #000;
        stroke-linecap: round;
        stroke-linejoin: round;
        stroke-width: 2px;
      }
    </style>
  </defs>
  <path id="vect_1_copy_3" data-name="vect 1 copy 3" class="cls-1" d="M58.949,137.03l174.574-12.207a9.958,9.958,0,0,1,7.258,2.429A10.4,10.4,0,0,1,244.2,134.1l0.7,9.976a10,10,0,0,1-9.278,10.673L46.079,168,45.032,153.04A15,15,0,0,1,58.949,137.03Z"/>
  <path class="cls-1" d="M236,125a93.387,93.387,0,0,1,62,57l-37,11c-0.2-11.533-4.971-22.665-14-30a37.489,37.489,0,0,0-19-8Q232,140,236,125Z"/>
  <path class="cls-2" d="M226,153l8,1,6-26-6-1Z"/>
  <path id="Rectangle_1_copy_4" data-name="Rectangle 1 copy 4" class="cls-1" d="M46,144q-0.47,21.458-.939,42.916c0,33.137,60,60,60,60Q104.53,223.457,104,200a108.048,108.048,0,0,1-12-6C72.394,182.62,56.955,165.359,46,144Z"/>
  <path id="vect_1_copy" data-name="vect 1 copy" class="cls-1" d="M140.84,178.891L280.5,169.126a60,60,0,1,1,8.37,119.707L149.21,298.6A60,60,0,0,1,140.84,178.891Z"/>
  <path class="cls-1" d="M85.526,255.166L205.234,246.8c44.075-3.082,85.386,74.225,85.386,74.225l-119.708,8.37C126.837,332.472,85.526,255.166,85.526,255.166Z"/>
  <path id="Rectangle_1_copy" data-name="Rectangle 1 copy" class="cls-1" d="M164,177.173L283.7,168.8c44.075-3.083,85.385,74.224,85.385,74.224L249.381,251.4C205.306,254.48,164,177.173,164,177.173Z"/>
  <path id="Rectangle_1_copy_3" data-name="Rectangle 1 copy 3" class="cls-2" d="M161,179.873L280.7,171.5c44.075-3.083,85.385,74.224,85.385,74.224L246.381,254.1C202.306,257.18,161,179.873,161,179.873Z"/>
  <path id="Rectangle_1_copy_2" data-name="Rectangle 1 copy 2" class="cls-2" d="M87.486,253.453l119.708-8.37c44.075-3.083,85.386,74.224,85.386,74.224l-119.708,8.371C128.8,330.76,87.486,253.453,87.486,253.453Z"/>
  <path id="vect_1_copy_2" data-name="vect 1 copy 2" class="cls-1" d="M167.307,209.888l139.659-9.766a60,60,0,0,1,8.371,119.707L175.678,329.6A60,60,0,1,1,167.307,209.888Z"/>
</svg>
